<?xml version="1.0" encoding="UTF-8" standalone="no"?>
<svg width="55px" height="20px" viewBox="0 0 55 20" version="1.1" xmlns="http://www.w3.org/2000/svg" xmlns:xlink="http://www.w3.org/1999/xlink" xmlns:sketch="http://www.bohemiancoding.com/sketch/ns">
    <!-- Generator: Sketch 3.4 (15575) - http://www.bohemiancoding.com/sketch -->
    <title>logo</title>
    <desc>Created with Sketch.</desc>
    <defs>
        <path id="path-1" d="M0,0.106507937 L54.2603175,0.106507937 L54.2603175,20 L0,20"></path>
        <path id="path-3" d="M0,0.106507937 L54.2603175,0.106507937 L54.2603175,20 L0,20"></path>
        <path id="path-5" d="M0,0.106507937 L54.2603175,0.106507937 L54.2603175,20 L0,20 L0,0.106507937 Z"></path>
    </defs>
    <g id="Page-1" stroke="none" stroke-width="1" fill="none" fill-rule="evenodd" sketch:type="MSPage">
        <g id="Command-Center" sketch:type="MSArtboardGroup" transform="translate(-347.000000, -472.000000)">
            <g id="logo" sketch:type="MSLayerGroup" transform="translate(347.000000, 472.000000)">
                <g id="Group-3">
                    <mask id="mask-2" sketch:name="Clip 2" fill="white">
                        <use xlink:href="#path-1"></use>
                    </mask>
                    <g id="Clip-2"></g>
                    <path d="M50.7202063,12.6747778 L53.2960794,14.3476349 C53.9360794,13.0401746 54.2603651,11.5925556 54.2603651,10.0408095 C54.2603651,7.29731746 53.2697302,4.92985714 51.3160794,3.00398413 C49.5994127,1.28557143 47.6503651,0.33747619 45.3630635,0.109380952 L45.3630635,3.17636508 C46.8021111,3.39065079 48.0846508,4.05319048 49.1779841,5.14763492 C50.5367143,6.48715873 51.2262381,8.13509524 51.2262381,10.044619 C51.2262381,10.9798571 51.0560794,11.8636667 50.7202063,12.6747778" id="Fill-1" fill="#FCB41D" sketch:type="MSShapeGroup" mask="url(#mask-2)"></path>
                </g>
                <path d="M5.08604762,10.7615714 C5.08604762,12.173 4.61620635,13.3668095 3.61842857,14.3790317 C2.6201746,15.377127 1.41128571,15.8474444 1.58730159e-05,15.8474444 L1.58730159e-05,12.8060159 C0.570650794,12.8060159 1.04557143,12.5631587 1.41525397,12.1768095 C1.8154127,11.7777619 1.99319048,11.2801429 1.99319048,10.7090317 L1.99319048,5.09950794 L5.08604762,5.09950794 L5.08604762,10.7615714 Z" id="Fill-4" fill="#FEFEFE" sketch:type="MSShapeGroup"></path>
                <path d="M8.96560317,15.008127 L5.87338095,15.008127 L5.87195238,5.09939683 L8.96560317,5.09939683 L8.96560317,15.008127 Z" id="Fill-6" fill="#FEFEFE" sketch:type="MSShapeGroup"></path>
                <g id="Group-10">
                    <mask id="mask-4" sketch:name="Clip 9" fill="white">
                        <use xlink:href="#path-3"></use>
                    </mask>
                    <g id="Clip-9"></g>
                    <path d="M37.2335714,3.00231746 C36.6288095,3.6072381 36.1170635,4.25438095 35.6992857,4.94152381 C36.2997619,5.16057143 36.8343651,5.50168254 37.2970635,5.96549206 C37.603254,6.27120635 37.857381,6.60104762 38.0618254,6.95279365 C38.3894444,6.30279365 38.8280159,5.69930159 39.3800794,5.14707937 C40.4784921,4.04834921 41.767381,3.38501587 43.2137302,3.17342857 L43.2137302,0.106444444 C40.9151587,0.329777778 38.9569048,1.27866667 37.2335714,3.00231746" id="Fill-8" fill="#D12026" sketch:type="MSShapeGroup" mask="url(#mask-4)"></path>
                </g>
                <g id="Group-13">
                    <mask id="mask-6" sketch:name="Clip 12" fill="white">
                        <use xlink:href="#path-5"></use>
                    </mask>
                    <g id="Clip-12"></g>
                    <path d="M49.5873968,14.5017937 C49.4591429,14.6513175 49.322,14.7994127 49.177873,14.9438571 C47.8108889,16.2913175 46.1634286,16.9740159 44.2799365,16.9740159 C42.5829524,16.9740159 41.0775556,16.4178254 39.7959683,15.3232222 L37.3508889,17.192746 C39.3166032,19.0790952 41.583746,20.0000476 44.2759683,20.0000476 C47.0208889,20.0000476 49.323746,19.045127 51.316127,17.0808413 C51.6116825,16.7848095 51.8885079,16.4757619 52.1410476,16.1600476 L49.5873968,14.5017937 Z" id="Fill-11" fill="#81B541" sketch:type="MSShapeGroup" mask="url(#mask-6)"></path>
                </g>
                <path d="M33.9735397,10.4994127 C34.6295714,10.4994127 35.1803651,9.93401587 35.1803651,9.29322222 C35.1803651,8.65115873 34.6295714,8.08766667 33.9735397,8.08766667 L32.1913175,8.08766667 L32.1913175,10.4994127 L33.9735397,10.4994127 Z M32.1402063,13.5935397 L32.1402063,15.0081429 L29.0459206,15.0081429 L29.0536984,5.0994127 L33.9578254,5.0994127 C35.1259206,5.0994127 36.1529048,5.45560317 36.978619,6.28322222 C37.8054444,7.10893651 38.221,8.12401587 38.221,9.29322222 C38.221,10.3189365 37.9030635,11.2325873 37.2759206,11.9673492 L39.5311587,14.959254 L37.0675079,16.8432222 L34.6025873,13.5935397 L32.1402063,13.5935397 Z" id="Fill-14" fill="#FEFEFE" sketch:type="MSShapeGroup"></path>
                <path d="M13.2460317,14.995873 L9.48968254,5.09952381 L12.7922222,5.09952381 L14.9422222,10.8669841 L17.1449206,5.09952381 L20.3949206,5.09952381 L16.6725397,15.008254 L13.2460317,14.995873 Z" id="Fill-16" fill="#FEFEFE" sketch:type="MSShapeGroup"></path>
                <path d="M23.9592698,11.1290635 L23.2260952,9.13636508 L22.5451429,11.1290635 L23.9592698,11.1290635 Z M24.7986349,13.645254 L21.6533968,13.645254 L21.2337143,15.0081111 L17.9305397,15.0081111 L21.4424444,5.09938095 L25.0606984,5.09938095 L28.5218095,15.0081111 L25.269746,15.0114444 L24.7986349,13.645254 Z" id="Fill-18" fill="#FEFEFE" sketch:type="MSShapeGroup"></path>
                <path d="M45.6899365,8.48188889 C45.2477143,8.03966667 44.7332698,7.82601587 44.1205714,7.82601587 C43.4945397,7.82601587 42.9799365,8.03966667 42.5386667,8.48188889 C42.1107302,8.9082381 41.8969206,9.4377619 41.8969206,10.0503016 C41.8969206,10.6636349 42.1107302,11.190619 42.5386667,11.6323651 C42.9799365,12.0596667 43.4945397,12.2744286 44.1205714,12.2744286 C44.7332698,12.2744286 45.2477143,12.0596667 45.6899365,11.6323651 C46.1459683,11.190619 46.359619,10.6636349 46.359619,10.0503016 C46.359619,9.4377619 46.1459683,8.9082381 45.6899365,8.48188889 M47.870254,13.8007778 C46.8307302,14.8256984 45.5904127,15.3544286 44.122,15.3544286 C42.6535873,15.3544286 41.4129524,14.8256984 40.3715238,13.8007778 C39.3453333,12.758873 38.8180317,11.5049048 38.8180317,10.0503016 C38.8180317,8.58236508 39.3453333,7.32712698 40.3715238,6.30173016 C41.4129524,5.25998413 42.6535873,4.73188889 44.122,4.73188889 C45.5904127,4.73188889 46.8307302,5.25998413 47.870254,6.30173016 C48.9115238,7.32712698 49.4383492,8.58236508 49.4383492,10.0503016 C49.4383492,11.5049048 48.9115238,12.758873 47.870254,13.8007778" id="Fill-20" fill="#FEFEFE" sketch:type="MSShapeGroup"></path>
            </g>
        </g>
    </g>
</svg>